<svg width="339" height="190" viewBox="0 0 339 190" fill="none" xmlns="http://www.w3.org/2000/svg">
<rect width="339" height="190" fill="#F9F9F9"/>
<path d="M164.113 112.136V111.795C164.151 108.178 164.53 105.299 165.249 103.159C165.969 101.019 166.992 99.286 168.317 97.9602C169.643 96.6345 171.234 95.4129 173.09 94.2955C174.208 93.6136 175.211 92.8087 176.102 91.8807C176.992 90.9337 177.692 89.8447 178.204 88.6136C178.734 87.3826 178.999 86.0189 178.999 84.5227C178.999 82.6667 178.564 81.0568 177.692 79.6932C176.821 78.3295 175.656 77.2784 174.198 76.5398C172.74 75.8011 171.121 75.4318 169.34 75.4318C167.787 75.4318 166.291 75.7538 164.852 76.3977C163.412 77.0417 162.21 78.0549 161.244 79.4375C160.278 80.8201 159.719 82.6288 159.567 84.8636H152.408C152.56 81.6439 153.393 78.8883 154.908 76.5966C156.442 74.3049 158.46 72.553 160.96 71.3409C163.478 70.1288 166.272 69.5227 169.34 69.5227C172.674 69.5227 175.571 70.1856 178.033 71.5114C180.514 72.8371 182.427 74.6553 183.772 76.9659C185.136 79.2765 185.817 81.9091 185.817 84.8636C185.817 86.947 185.496 88.8314 184.852 90.517C184.227 92.2027 183.317 93.7083 182.124 95.0341C180.95 96.3598 179.53 97.5341 177.863 98.5568C176.196 99.5985 174.861 100.697 173.857 101.852C172.853 102.989 172.124 104.343 171.67 105.915C171.215 107.487 170.969 109.447 170.931 111.795V112.136H164.113ZM167.749 128.955C166.348 128.955 165.145 128.453 164.141 127.449C163.138 126.445 162.636 125.242 162.636 123.841C162.636 122.439 163.138 121.237 164.141 120.233C165.145 119.229 166.348 118.727 167.749 118.727C169.151 118.727 170.353 119.229 171.357 120.233C172.361 121.237 172.863 122.439 172.863 123.841C172.863 124.769 172.626 125.621 172.153 126.398C171.698 127.174 171.083 127.799 170.306 128.273C169.549 128.727 168.696 128.955 167.749 128.955Z" fill="black"/>
</svg>
